<svg width="40" height="40" viewBox="0 0 40 40" fill="none" xmlns="http://www.w3.org/2000/svg">
<path d="M20.0456 0H19.9544C8.9339 0 0 8.93392 0 19.9545V20.0455C0 31.0661 8.9339 40 19.9544 40H20.0456C31.0661 40 40 31.0661 40 20.0455V19.9545C40 8.93392 31.0661 0 20.0456 0Z" fill="#383D38"/>
<path d="M7.57586 19.3182C7.63192 19.2902 7.688 19.2636 7.74265 19.2383C8.6928 18.7983 9.65556 18.3863 10.6169 17.9743C10.6688 17.9743 10.7556 17.914 10.8047 17.8944C10.879 17.8622 10.9532 17.8313 11.0275 17.7991C11.1705 17.7374 11.3134 17.6772 11.4549 17.6155C11.7408 17.4936 12.0253 17.3717 12.3112 17.2498L14.0223 16.5168C15.163 16.0291 16.3052 15.5401 17.4459 15.0524C18.5866 14.5647 19.7288 14.0756 20.8695 13.5879C22.0102 13.1002 23.1524 12.6111 24.2931 12.1235C25.4338 11.6358 26.576 11.1467 27.7167 10.659C27.9704 10.5497 28.2451 10.3871 28.5169 10.3395C28.7454 10.2988 28.9682 10.2204 29.198 10.1769C29.6338 10.0942 30.1145 10.0606 30.5321 10.2414C30.6765 10.3045 30.8096 10.3927 30.9203 10.5035C31.45 11.0276 31.3758 11.888 31.2636 12.6252C30.4831 17.7627 29.7025 22.9016 28.9205 28.0391C28.814 28.744 28.6683 29.5176 28.1119 29.9632C27.641 30.3402 26.9712 30.3822 26.3896 30.2225C25.808 30.0613 25.2951 29.7236 24.792 29.3914C22.7053 28.0097 20.6173 26.6279 18.5306 25.2461C18.0345 24.9182 17.4824 24.4894 17.488 23.8938C17.4908 23.535 17.7052 23.2155 17.9238 22.931C19.7372 20.5655 22.3536 18.9398 24.3001 16.6836C24.5748 16.3655 24.7906 15.7909 24.4136 15.6073C24.1894 15.498 23.9315 15.6466 23.7269 15.7881C21.154 17.5749 18.5824 19.3631 16.0095 21.1498C15.17 21.7328 14.29 22.3326 13.2782 22.4756C12.3729 22.6045 11.462 22.3522 10.5861 22.0944C9.85176 21.8786 9.1188 21.6571 8.38868 21.4287C8.00049 21.3082 7.59969 21.1779 7.29979 20.9046C6.99989 20.6313 6.82754 20.1717 7.00832 19.8073C7.12184 19.5789 7.34186 19.4345 7.57309 19.3168L7.57586 19.3182Z" fill="#FEFFFC"/>
</svg>
