<svg width="40" height="40" viewBox="0 0 40 40" fill="none" xmlns="http://www.w3.org/2000/svg">
<path d="M20.0455 0H19.9545C8.93391 0 0 8.93392 0 19.9545V20.0455C0 31.0661 8.93391 40 19.9545 40H20.0455C31.0661 40 40 31.0661 40 20.0455V19.9545C40 8.93392 31.0661 0 20.0455 0Z" fill="#383D38"/>
<path d="M23.898 25.8501C18.7787 25.8501 14.6137 21.6838 14.6123 16.5645C14.6137 15.2668 15.6704 14.2115 16.9653 14.2115C17.0984 14.2115 17.2301 14.2227 17.3563 14.2451C17.6337 14.2914 17.8972 14.3853 18.1397 14.5268C18.1747 14.5479 18.1985 14.5815 18.2041 14.6207L18.745 18.0303C18.7521 18.0696 18.7394 18.1102 18.7128 18.1396C18.4143 18.4704 18.0331 18.7086 17.6085 18.8277L17.4039 18.8852L17.481 19.0828C18.1789 20.8597 19.5999 22.2793 21.3783 22.98L21.5759 23.0585L21.6333 22.8539C21.7524 22.4293 21.9907 22.0481 22.3214 21.7496C22.3452 21.7272 22.3775 21.716 22.4097 21.716C22.4167 21.716 22.4237 21.716 22.4321 21.7174L25.8417 22.2583C25.8823 22.2653 25.916 22.2878 25.937 22.3228C26.0771 22.5652 26.171 22.8301 26.2187 23.1076C26.2411 23.2309 26.2509 23.3612 26.2509 23.4972C26.2509 24.7934 25.1957 25.8487 23.898 25.8501Z" fill="#FDFDFD"/>
<path d="M32.9762 18.8768C32.7001 15.7573 31.2707 12.8634 28.9514 10.7291C26.6181 8.58213 23.5911 7.39935 20.4253 7.39935C13.4772 7.39935 7.82398 13.0526 7.82398 20.0007C7.82398 22.3326 8.46721 24.6043 9.68502 26.583L6.96912 32.595L15.6648 31.6687C17.1769 32.2881 18.7773 32.602 20.4239 32.602C20.8569 32.602 21.3012 32.5796 21.7468 32.5334C22.1392 32.4913 22.5358 32.4297 22.9254 32.3512C28.744 31.1754 32.9916 26.0113 33.0252 20.068V20.0007C33.0252 19.6223 33.0084 19.2439 32.9748 18.8782L32.9762 18.8768ZM15.9997 29.0299L11.1887 29.5428L12.6252 26.3602L12.3379 25.9748C12.3168 25.9468 12.2958 25.9188 12.272 25.8865C11.0248 24.1642 10.3661 22.1294 10.3661 20.0021C10.3661 14.4554 14.8786 9.94289 20.4253 9.94289C25.6217 9.94289 30.0263 13.9971 30.4509 19.1725C30.4733 19.4499 30.4859 19.7288 30.4859 20.0035C30.4859 20.082 30.4845 20.1591 30.4831 20.2417C30.3766 24.8818 27.1352 28.8225 22.6003 29.8259C22.2541 29.9029 21.8996 29.9618 21.5464 29.9996C21.1793 30.0417 20.8023 30.0627 20.4281 30.0627C19.0954 30.0627 17.8005 29.8048 16.5771 29.2947C16.4411 29.2401 16.308 29.1812 16.1833 29.121L16.0011 29.0327L15.9997 29.0299Z" fill="#FDFDFD"/>
</svg>
