<svg width="40" height="40" viewBox="0 0 40 40" fill="none" xmlns="http://www.w3.org/2000/svg">
<path d="M40 20C40 8.9543 31.0457 0 20 0C8.95432 0 0 8.9543 0 20C0 31.0457 8.95432 40 20 40C31.0457 40 40 31.0457 40 20Z" fill="#383D38"/>
<path d="M32.5937 15.8555C32.4363 14.3363 32.0976 12.6569 30.851 11.7743C29.8855 11.0899 28.6164 11.0646 27.4317 11.066C24.9273 11.066 22.4215 11.0702 19.9171 11.0716C17.5083 11.0744 15.0995 11.0758 12.6906 11.0786C11.6844 11.0786 10.7062 11.0013 9.77165 11.437C8.96918 11.8108 8.34098 12.5219 7.96293 13.3132C7.43872 14.4136 7.3291 15.6602 7.26586 16.8772C7.14922 19.0935 7.16186 21.3154 7.301 23.5303C7.40359 25.1465 7.66358 26.9327 8.91297 27.9629C10.0204 28.875 11.5832 28.92 13.0195 28.9214C17.5786 28.9256 22.139 28.9298 26.6995 28.9326C27.2841 28.934 27.8941 28.9228 28.49 28.8581C29.6621 28.7316 30.7793 28.3957 31.5326 27.5272C32.2929 26.6517 32.4883 25.4332 32.6035 24.2794C32.8846 21.4799 32.8818 18.6536 32.5937 15.8555ZM17.2806 23.9238V16.0748L24.0771 19.9986L17.2806 23.9238Z" fill="white"/>
</svg>
